<svg id="svg" version="1.1" xmlns="http://www.w3.org/2000/svg" xmlns:xlink="http://www.w3.org/1999/xlink" width="400"
    height="453.0805687203791" viewBox="0, 0, 400,453.0805687203791">
    <g id="svgg">
        <path id="path0"
            d="M114.813 11.175 C 73.951 78.441,86.147 133.628,148.759 164.792 C 166.732 173.737,173.434 174.791,167.122 167.678 C 166.243 166.687,170.722 170.995,177.075 177.251 L 188.626 188.626 171.764 189.878 C 112.065 194.311,47.658 247.487,13.373 320.651 C -1.459 352.301,-5.317 400.269,5.344 420.465 C 27.777 462.956,81.758 466.177,120.730 427.350 L 136.247 411.891 137.492 419.263 C 144.319 459.670,207.087 466.483,256.872 432.220 C 278.247 417.510,299.393 394.245,323.902 358.474 C 338.892 336.596,338.902 336.406,325.309 329.472 C 318.004 325.745,317.576 325.723,315.704 328.986 C 285.903 380.915,235.071 427.518,235.071 402.910 C 235.071 389.577,234.424 390.933,361.847 137.337 C 394.774 71.806,403.070 53.081,399.176 53.081 C 398.722 53.081,396.053 53.954,393.245 55.022 C 375.945 61.599,320.265 69.423,304.196 67.535 C 292.946 66.213,291.097 67.711,283.443 84.360 C 263.724 127.251,229.112 195.261,227.002 195.261 C 215.689 195.261,189.993 182.432,180.401 171.995 L 175.969 167.172 183.801 154.202 C 209.972 110.863,200.944 72.817,157.664 44.056 C 146.317 36.516,134.883 22.480,129.111 9.005 C 124.179 -2.509,123.019 -2.333,114.813 11.175 M213.203 229.858 C 210.525 235.332,206.769 242.796,204.857 246.445 C 202.945 250.095,195.200 265.024,187.647 279.621 C 132.056 387.051,113.507 413.270,93.097 413.270 C 85.648 413.270,84.943 411.739,85.091 395.894 C 85.609 340.603,172.223 220.428,211.880 219.976 L 218.073 219.905 213.203 229.858 "
            stroke="none" fill="#000000" fill-rule="evenodd"></path>
    </g>
</svg>